<mxfile host="app.diagrams.net" modified="2021-09-06T17:48:58.991Z" agent="5.0 (Windows)" etag="f-Lz3Zouu9eXQHcNEHEK" version="15.0.6" type="github">
  <diagram id="C5RBs43oDa-KdzZeNtuy" name="Page-1">
    <mxGraphModel dx="1206" dy="750" grid="1" gridSize="10" guides="1" tooltips="1" connect="1" arrows="1" fold="1" page="1" pageScale="1" pageWidth="827" pageHeight="1169" math="0" shadow="0">
      <root>
        <mxCell id="WIyWlLk6GJQsqaUBKTNV-0" />
        <mxCell id="WIyWlLk6GJQsqaUBKTNV-1" parent="WIyWlLk6GJQsqaUBKTNV-0" />
        <mxCell id="nGikPMcv6swXw5j7szwC-6" value="" style="edgeStyle=orthogonalEdgeStyle;rounded=0;orthogonalLoop=1;jettySize=auto;html=1;" edge="1" parent="WIyWlLk6GJQsqaUBKTNV-1" source="WIyWlLk6GJQsqaUBKTNV-3" target="nGikPMcv6swXw5j7szwC-2">
          <mxGeometry relative="1" as="geometry" />
        </mxCell>
        <mxCell id="WIyWlLk6GJQsqaUBKTNV-3" value="START" style="rounded=1;whiteSpace=wrap;html=1;fontSize=12;glass=0;strokeWidth=1;shadow=0;" parent="WIyWlLk6GJQsqaUBKTNV-1" vertex="1">
          <mxGeometry x="160" y="80" width="120" height="40" as="geometry" />
        </mxCell>
        <mxCell id="nGikPMcv6swXw5j7szwC-4" value="" style="edgeStyle=orthogonalEdgeStyle;rounded=0;orthogonalLoop=1;jettySize=auto;html=1;" edge="1" parent="WIyWlLk6GJQsqaUBKTNV-1" source="nGikPMcv6swXw5j7szwC-2" target="nGikPMcv6swXw5j7szwC-3">
          <mxGeometry relative="1" as="geometry" />
        </mxCell>
        <mxCell id="nGikPMcv6swXw5j7szwC-2" value="Buy all ingredients" style="rounded=0;whiteSpace=wrap;html=1;" vertex="1" parent="WIyWlLk6GJQsqaUBKTNV-1">
          <mxGeometry x="160" y="170" width="120" height="60" as="geometry" />
        </mxCell>
        <mxCell id="nGikPMcv6swXw5j7szwC-8" value="" style="edgeStyle=orthogonalEdgeStyle;rounded=0;orthogonalLoop=1;jettySize=auto;html=1;" edge="1" parent="WIyWlLk6GJQsqaUBKTNV-1" source="nGikPMcv6swXw5j7szwC-3" target="nGikPMcv6swXw5j7szwC-7">
          <mxGeometry relative="1" as="geometry" />
        </mxCell>
        <mxCell id="nGikPMcv6swXw5j7szwC-3" value="Mix ingredients" style="whiteSpace=wrap;html=1;rounded=0;" vertex="1" parent="WIyWlLk6GJQsqaUBKTNV-1">
          <mxGeometry x="160" y="280" width="120" height="60" as="geometry" />
        </mxCell>
        <mxCell id="nGikPMcv6swXw5j7szwC-10" value="" style="edgeStyle=orthogonalEdgeStyle;rounded=0;orthogonalLoop=1;jettySize=auto;html=1;" edge="1" parent="WIyWlLk6GJQsqaUBKTNV-1" source="nGikPMcv6swXw5j7szwC-7" target="nGikPMcv6swXw5j7szwC-9">
          <mxGeometry relative="1" as="geometry" />
        </mxCell>
        <mxCell id="nGikPMcv6swXw5j7szwC-7" value="Preheat oven (175*C)" style="whiteSpace=wrap;html=1;rounded=0;" vertex="1" parent="WIyWlLk6GJQsqaUBKTNV-1">
          <mxGeometry x="160" y="380" width="120" height="60" as="geometry" />
        </mxCell>
        <mxCell id="nGikPMcv6swXw5j7szwC-17" value="" style="edgeStyle=orthogonalEdgeStyle;rounded=0;orthogonalLoop=1;jettySize=auto;html=1;" edge="1" parent="WIyWlLk6GJQsqaUBKTNV-1" source="nGikPMcv6swXw5j7szwC-9" target="nGikPMcv6swXw5j7szwC-15">
          <mxGeometry relative="1" as="geometry" />
        </mxCell>
        <mxCell id="nGikPMcv6swXw5j7szwC-9" value="Bake the cake mix for 40min" style="whiteSpace=wrap;html=1;rounded=0;" vertex="1" parent="WIyWlLk6GJQsqaUBKTNV-1">
          <mxGeometry x="160" y="480" width="120" height="60" as="geometry" />
        </mxCell>
        <mxCell id="nGikPMcv6swXw5j7szwC-11" value="End" style="ellipse;whiteSpace=wrap;html=1;rounded=0;" vertex="1" parent="WIyWlLk6GJQsqaUBKTNV-1">
          <mxGeometry x="160" y="650" width="120" height="60" as="geometry" />
        </mxCell>
        <mxCell id="nGikPMcv6swXw5j7szwC-16" value="" style="edgeStyle=orthogonalEdgeStyle;rounded=0;orthogonalLoop=1;jettySize=auto;html=1;" edge="1" parent="WIyWlLk6GJQsqaUBKTNV-1" source="nGikPMcv6swXw5j7szwC-15" target="nGikPMcv6swXw5j7szwC-11">
          <mxGeometry relative="1" as="geometry" />
        </mxCell>
        <mxCell id="nGikPMcv6swXw5j7szwC-15" value="Eat the cake!" style="rounded=0;whiteSpace=wrap;html=1;" vertex="1" parent="WIyWlLk6GJQsqaUBKTNV-1">
          <mxGeometry x="160" y="570" width="120" height="60" as="geometry" />
        </mxCell>
      </root>
    </mxGraphModel>
  </diagram>
</mxfile>
